<?xml version="1.0" encoding="UTF-8" standalone="no"?><!DOCTYPE svg PUBLIC "-//W3C//DTD SVG 1.1//EN" "http://www.w3.org/Graphics/SVG/1.1/DTD/svg11.dtd"><svg width="100%" height="100%" viewBox="0 0 97 109" version="1.1" xmlns="http://www.w3.org/2000/svg" xmlns:xlink="http://www.w3.org/1999/xlink" xml:space="preserve" xmlns:serif="http://www.serif.com/" style="fill-rule:evenodd;clip-rule:evenodd;stroke-linejoin:round;stroke-miterlimit:2;"><path d="M4.881,4.694l0.024,3.28l-4.905,0.036l0.028,3.675l4.905,-0.037l0.938,62.337l1.441,21.904l0.491,12.057l18.892,0.57c-0,0 -0.099,-3.058 0.191,-4.553c0.314,-1.623 1.518,-3.386 1.697,-5.185c0.269,-2.703 -0.083,-11.034 -0.083,-11.034c0,-0 2.043,-0.676 2.611,-1.776c0.644,-1.249 0.613,-4.466 1.257,-5.715c0.569,-1.1 2.093,-0.655 2.611,-1.776c0.623,-1.348 -0.279,-4.956 1.125,-6.309c1.404,-1.354 8.614,-0.065 8.614,-0.065c0,0 20.782,-2.272 29.349,-6.886c8.567,-4.614 22.053,-20.798 22.053,-20.798c-0,-0 -28.593,1.293 -38.6,5.264c-8.972,3.561 -21.445,18.565 -21.445,18.565c-0,0 16.064,-18.333 21.367,-28.955c5.373,-10.764 10.872,-35.629 10.872,-35.629c-0,0 -22.541,13.785 -28.551,24.096c-6.009,10.311 -7.505,37.77 -7.505,37.77l0.021,2.747c-0,-0 0.84,3.099 0.028,3.726c-0.813,0.627 -2.746,1.592 -3.558,2.389c-0.811,0.797 -0.174,1.593 -1.312,2.392c-1.139,0.799 -5.049,0.051 -5.049,0.051l-0.49,-65.341l2.943,-0.022l-0.046,-6.182l-2.944,0.022l-0.005,-0.773l-5.132,0.039l-0.035,-4.578l-7.175,0.067l0.035,4.578l-4.658,0.049Z" style="fill:#00bed4;"/></svg>